<?xml version="1.0" encoding="utf-8"?>
<!-- Generator: Adobe Illustrator 26.0.1, SVG Export Plug-In . SVG Version: 6.00 Build 0)  -->
<svg version="1.1" id="Camada_1" xmlns="http://www.w3.org/2000/svg" xmlns:xlink="http://www.w3.org/1999/xlink" x="0px" y="0px"
	 width="301px" height="301px" viewBox="0 0 301 301" enable-background="new 0 0 301 301" xml:space="preserve">
<g>
	<g>
		<defs>
			<circle id="SVGID_1_" cx="150.5" cy="150.5" r="150"/>
		</defs>
		<clipPath id="SVGID_00000060739459266219620810000014546453224770872990_">
			<use xlink:href="#SVGID_1_"  overflow="visible"/>
		</clipPath>
		<g clip-path="url(#SVGID_00000060739459266219620810000014546453224770872990_)">
			<circle fill="#FFFFFF" cx="150.5" cy="150.5" r="150"/>
			<g>
				<g>
					<path fill="#94A2AF" d="M176.473,91.363c0,0-34.188-5.439-43.953-8.561c-9.765-3.122-37.904-18.029-51.574-14.982
						c-13.67,3.047-23.385,14.616-22.287,42.474c1.097,27.858-2.866,82.484-6.633,99.832c-3.767,17.348-6.254,22.058-6.254,22.058
						s-129.753-22.765-139.559-22.058c-9.806,0.707-16.938,2.214-19.91,12.902c-2.972,10.687-2.972,33.272,0,40.107
						c2.972,6.835,5.646,25.556,5.646,25.556l208.2,2.377L176.473,91.363z"/>
					<path fill="#AFBAC6" d="M80.946,67.82c-13.67,3.047-23.385,14.616-22.288,42.474c0.602,15.279-0.32,38.606-1.896,59.423
						l5.829-12.065c0,0,2.076-55.541,5.542-64.64c3.466-9.099,12.13-19.875,25.964-19.994c5.025-0.043,14.386,1.751,24.27,4.054
						C106.046,71.909,90.19,65.76,80.946,67.82z"/>
					<path fill="none" stroke="#000000" stroke-linecap="round" stroke-linejoin="round" stroke-miterlimit="10" d="M176.473,91.363
						c0,0-34.188-5.439-43.953-8.561c-9.765-3.122-37.904-18.029-51.574-14.982c-13.67,3.047-23.385,14.616-22.287,42.474
						c1.097,27.858-2.866,82.484-6.633,99.832c-3.767,17.348-6.254,22.058-6.254,22.058s-129.753-22.765-139.559-22.058
						c-9.806,0.707-16.938,2.214-19.91,12.902c-2.972,10.687-2.972,33.272,0,40.107c2.972,6.835,5.646,25.556,5.646,25.556
						l208.2,2.377L176.473,91.363z"/>
				</g>
				<path fill="#94A2AF" stroke="#000000" stroke-linecap="round" stroke-linejoin="round" stroke-miterlimit="10" d="
					M261.624,70.419c0,0-45.098-8.591-93.869,20.445c0,0-74.271,98.924-85.443,152.536l134.737,21.815L261.624,70.419z"/>
			</g>
			<g>
				<path fill="#75B34B" stroke="#000000" stroke-linecap="round" stroke-linejoin="round" stroke-miterlimit="10" d="
					M165.841,140.243l-5.769-1.742c0,0-21.276,10.123-23.611,10.393c-2.335,0.271-15.536,2.27-18.256,3.9
					c-2.72,1.629-12.395,8.327-12.395,8.327l-11.712,14.232l7.392,10.794l68.867-40.455L165.841,140.243z"/>
				<g>
					<path fill="#EFC2B4" d="M165.179,139.605c0,0-14.506,6.035-16.531,7.006c-2.024,0.97-9.679,3.618-11.597,3.994
						c-1.919,0.376-17.578,5.048-17.578,5.048l-7.506,5.466l-14.458,11.031l-22.228,14.773l31.466,39.003l82.399-62.401
						L165.179,139.605z"/>
					<path fill="#DBA79A" d="M94.057,183.332l21.538,5.108l16.981-12.978c0,0,2.071-12.149,0.828-13.53
						c-1.243-1.381-9.664-0.276-9.664-0.276s3.175-4.556,3.727-5.108c0.291-0.291,4.755-3.147,8.917-5.786
						c-3.538,0.9-16.912,4.89-16.912,4.89l-7.506,5.466l-14.458,11.031l-22.228,14.773L94.057,183.332z"/>
					<path fill="none" stroke="#000000" stroke-linecap="round" stroke-linejoin="round" stroke-miterlimit="10" d="
						M165.179,139.605c0,0-14.506,6.035-16.531,7.006c-2.024,0.97-9.679,3.618-11.597,3.994c-1.919,0.376-17.578,5.048-17.578,5.048
						l-7.506,5.466l-14.458,11.031l-22.228,14.773l31.466,39.003l82.399-62.401L165.179,139.605z"/>
				</g>
				<g>
					<g>
						<path fill="#FCD5CA" d="M123.269,158.76c0,0-0.726,2.553-1.482,3.082c-1.052,0.737-3.508,2.274-3.845,2.426
							c-0.337,0.152-1.599,1.747-2.025,2.918c-0.427,1.171-3.269,3.598-4.192,4.038c-0.923,0.44-5.113,1.653-5.506,1.906
							c-0.393,0.253-2.016,2.369-3.981,2.086c0,0-3.338,0.694-4.428-0.294s-6.733-9.331-6.922-10.221
							c-0.189-0.89-6.291-10.955-6.291-10.955s-0.556-2.888-0.242-5.027c0,0,1.842-4.784,5.79-6.136
							c3.949-1.351,23.867-0.575,26.129-0.163c2.262,0.412,6.791,2.779,7.777,4.198c0.985,1.419,2.611,3.86,2.779,4.285
							c0.168,0.425,0.058,1.29,0.084,2.482C126.939,154.578,123.269,158.76,123.269,158.76z"/>
						
							<radialGradient id="SVGID_00000100353139870599231090000004386718236410759329_" cx="-8768.627" cy="1004.1321" r="5.0563" gradientTransform="matrix(-0.9376 -0.3477 -0.248 0.6688 -7875.4692 -3562.5127)" gradientUnits="userSpaceOnUse">
							<stop  offset="0" style="stop-color:#FCBFBA"/>
							<stop  offset="1" style="stop-color:#FCD5CA"/>
						</radialGradient>
						<path fill="url(#SVGID_00000100353139870599231090000004386718236410759329_)" d="M92.88,158.506
							c0.453,2.508,2.853,4.173,5.361,3.72c2.508-0.453,4.174-2.853,3.72-5.361s-2.853-4.174-5.361-3.72
							C94.093,153.598,92.427,155.998,92.88,158.506z"/>
						<path fill="#EFC2B4" d="M86.289,151.6c0.371,0.941,0.95,1.911,1.393,2.503c0.443,0.592,0.778,0.8,1.379,0.49l-0.549,2.113
							c0,0-1.384-1.286-1.616-1.772c-0.232-0.486-1.155-2.672-1.155-2.672l-0.734,2.164c-0.257-0.426-0.41-0.679-0.41-0.679
							s-0.556-2.888-0.242-5.027c0,0,0.212-0.542,0.635-1.307l0.906,0.256C85.896,147.67,85.917,150.659,86.289,151.6z"/>
						<path fill="#EFC2B4" d="M110.344,151.761c0,0,3.562,3.093,3.762,3.79c0.199,0.697,0.462,1.748,0.462,1.748l-4.024,0.434
							c0,0-1.602-3.594-2.343-4.046c-0.741-0.452-4.866-2.198-4.866-2.198S106.039,149.828,110.344,151.761z"/>
						<path fill="#EFC2B4" d="M89.596,162.21c-0.05-0.807-0.093-1.665-0.073-1.971c0.042-0.634,0.465-3.057,0.465-3.057
							s0.32,3.072,0.58,4.512c0.26,1.44,1.298,3.287,2.117,3.921c0.819,0.635,4.418,3.662,5.457,3.787
							c1.04,0.125,2.654-2.201,3.315-2.007c0.661,0.194-0.477,1.26-0.278,1.928c0.199,0.668,1.658,1.813,1.658,1.813
							s1.104-1.686,1.483-1.755c0.379-0.068,2.488-1.388,2.488-1.388s-0.15-1.695-0.232-2.149c-0.082-0.455-1.08-1.214-1.073-1.606
							c0.007-0.393-1.707-0.787-2.251-0.767c-0.544,0.02-4.181,0.677-3.024,0.155c1.158-0.522,4.128-1.067,4.933-1.282
							c0.896-0.24,3.892-0.546,3.706-0.278c-0.186,0.268-1.469,1.831-0.732,2.01c0.737,0.18,3.277,1.677,3.648,2.001
							c0.372,0.324,1.543-0.122,1.64-0.453c0.097-0.33,1.517-4.554,1.517-4.554s1.686-1.971,1.975-2.102
							c0.289-0.131,2.784-1.051,2.784-1.051s2.849-3.723,3.435-4.377c0.586-0.654,0.66-5.44,0.66-5.44l1.372,0.161
							c0.788,1.177,1.55,2.36,1.662,2.644c0.168,0.425,0.058,1.29,0.084,2.482c0.026,1.191-3.644,5.373-3.644,5.373
							s-0.726,2.553-1.482,3.082c-1.052,0.737-3.508,2.274-3.845,2.426c-0.337,0.152-1.598,1.747-2.025,2.918
							c-0.427,1.171-3.269,3.598-4.192,4.038c-0.923,0.44-5.113,1.653-5.506,1.906c-0.393,0.253-2.016,2.369-3.981,2.086
							c0,0-3.338,0.694-4.428-0.294c-1.09-0.988-6.733-9.331-6.922-10.221C90.834,164.453,90.315,163.48,89.596,162.21z"/>
						<path fill="#44362C" stroke="#000000" stroke-linecap="round" stroke-linejoin="round" stroke-miterlimit="10" d="
							M90.703,142.325c0,0,1.742,1.976,1.816,2.388c0.075,0.413-0.117,4.069-0.315,4.744c-0.198,0.675-0.636,2.671-0.636,2.671
							l1.183-1.705l-0.644,1.448l1.08-1.1l-0.184,1.045c0,0,1.827-2.567,2.019-2.975c0.193-0.408,0.674-3.051,0.937-3.365
							s2.292,0.012,2.757-0.072c0.464-0.084,5.613-1.067,5.767-1.095c0.155-0.028,9.788-0.064,13.068,1.58
							c3.28,1.645,8.348,5.523,8.348,5.523l-2.12-7.02l-13.352-3.447l-15.043-0.425L90.703,142.325z"/>
						<path fill="none" stroke="#000000" stroke-linecap="round" stroke-linejoin="round" stroke-miterlimit="10" d="
							M123.269,158.76c0,0-0.726,2.553-1.482,3.082c-1.052,0.737-3.508,2.274-3.845,2.426c-0.337,0.152-1.599,1.747-2.025,2.918
							c-0.427,1.171-3.269,3.598-4.192,4.038c-0.923,0.44-5.113,1.653-5.506,1.906c-0.393,0.253-2.016,2.369-3.981,2.086
							c0,0-3.338,0.694-4.428-0.294s-6.733-9.331-6.922-10.221c-0.189-0.89-6.291-10.955-6.291-10.955s-0.556-2.888-0.242-5.027
							c0,0,1.842-4.784,5.79-6.136c3.949-1.351,23.867-0.575,26.129-0.163c2.262,0.412,6.791,2.779,7.777,4.198
							c0.985,1.419,2.611,3.86,2.779,4.285c0.168,0.425,0.058,1.29,0.084,2.482C126.939,154.578,123.269,158.76,123.269,158.76z"/>
						<path fill="none" stroke="#000000" stroke-linecap="round" stroke-linejoin="round" stroke-miterlimit="10" d="M85.896,147.67
							c0,0,0.021,2.989,0.393,3.93c0.371,0.941,0.95,1.911,1.393,2.503c0.443,0.592,0.778,0.8,1.379,0.49c0,0-1.1,3.2-0.55,5.732"/>
						<path fill="none" stroke="#000000" stroke-linecap="round" stroke-linejoin="round" stroke-miterlimit="10" d="
							M90.218,159.221c0,0,0.245,2.845,0.729,4.034c0.484,1.189,3.39,3.889,3.39,3.889"/>
						<path fill="#DD9F91" d="M102.208,168.669c0,0,1.287-1.051,2.451-1.087c1.164-0.036,2.783,1.171,3.346,1.542
							c0.563,0.371,1.064,0.693,1.365,1.36c0.117,0.259,0.208,0.647,0.277,1.024c-1.076,0.615-2.724,1.457-2.906,1.658
							c-0.153,0.168-1.043,1.139-1.043,1.139c-0.353,0.761-1.834,0.003-2.35-0.646c-0.68-0.856-1.303-2.081-1.193-2.675
							C102.266,170.39,102.208,168.669,102.208,168.669z"/>
						<path fill="none" stroke="#000000" stroke-linecap="round" stroke-linejoin="round" stroke-miterlimit="10" d="
							M109.646,171.507c-1.076,0.615-2.724,1.457-2.906,1.658c-0.153,0.168-1.043,1.139-1.043,1.139
							c-0.288,0.62-1.325,0.232-1.978-0.285"/>
						<path fill="#AD7C6F" d="M102.208,168.669c0.159,0.017,1.906,0.207,3.793,0.977c1.887,0.77,3.206,2.108,2.822,2.32
							c-0.944,0.516-1.943,1.046-2.082,1.2c-0.073,0.081-0.446,0.376-0.624,0.682c0.213-0.346-1.524-1.51-2.079-1.953
							C103.483,171.451,102.049,168.652,102.208,168.669z"/>
						<path fill="#8C584F" d="M102.208,168.669c0.159,0.017,1.906,0.207,3.793,0.977c0.875,0.357,1.625,0.835,2.142,1.268
							c-0.296,0.099-0.606,0.207-0.784,0.281c-0.315,0.132-1.016,1.448-1.545,2.11c-0.488-0.483-1.402-1.111-1.777-1.411
							C103.483,171.451,102.049,168.652,102.208,168.669z"/>
						<path fill="none" stroke="#000000" stroke-linecap="round" stroke-linejoin="round" stroke-miterlimit="10" d="
							M102.208,168.669c0.159,0.017,1.906,0.207,3.793,0.977c1.887,0.77,3.206,2.108,2.822,2.32c-0.944,0.516-1.943,1.046-2.082,1.2
							c-0.073,0.081-0.446,0.376-0.624,0.682c0.213-0.346-1.524-1.51-2.079-1.953C103.483,171.451,102.049,168.652,102.208,168.669z
							"/>
						<path fill="none" stroke="#000000" stroke-linecap="round" stroke-linejoin="round" stroke-miterlimit="10" d="
							M116.196,159.835c0,0-1.142,0.744-1.255,1.235c-0.113,0.491-0.75,4.032-1.017,5.155c-0.267,1.123-2.373,1.369-2.922,0.931
							c-0.549-0.438-0.804-0.73-1.809-0.346"/>
						<path fill="none" stroke="#000000" stroke-linecap="round" stroke-linejoin="round" stroke-miterlimit="10" d="
							M109.415,165.958c0,0-0.822-0.869-1.566-0.656"/>
						<path fill="none" stroke="#000000" stroke-linecap="round" stroke-linejoin="round" stroke-miterlimit="10" d="
							M108.265,162.409c0,0-1.195,0.099-1.809,0.601c-0.614,0.502-0.274,1.732,0.005,2.19"/>
						<path fill="none" stroke="#000000" stroke-linecap="round" stroke-linejoin="round" stroke-miterlimit="10" d="
							M109.282,158.078c0,0-3.402-0.207-5.31-3.188"/>
						<path fill="#44362C" stroke="#000000" stroke-linecap="round" stroke-linejoin="round" stroke-miterlimit="10" d="
							M112.108,153.435c0,0-2.7-2.59-6.673-2.536C105.435,150.899,110.2,149.555,112.108,153.435z"/>
						<path fill="none" stroke="#000000" stroke-linecap="round" stroke-linejoin="round" stroke-miterlimit="10" d="
							M116.001,162.627c0,0,1,1.027,1.941,1.641"/>
						<path fill="#44362C" stroke="#000000" stroke-linecap="round" stroke-linejoin="round" stroke-miterlimit="10" d="
							M118.835,159.943c0,0,1.609,0.554,1.777,2.153C120.612,162.096,121.517,159.76,118.835,159.943z"/>
						<path fill="#EFC2B4" d="M90.115,143.59c0,0,1.008,0.904,0.667,1.69c-0.341,0.786-1.149,1.656-0.666,1.991
							c0.483,0.335,0.64,1.876-0.242,3.001c-0.883,1.125-1.089,0.317-1.502-0.634c-0.317-0.731-0.327-1.811-0.019-2.109
							c0,0,0.409,0.731,0.735,0.672c0.325-0.059,0.073-0.925,0.272-1.153c0.199-0.228,0.576-1.064,0.644-1.22
							s-1.069-0.335-1.825-0.006c-0.757,0.329-1.43,1.65-1.502,2.048c-0.072,0.397,1.414,4.641,1.414,4.641s-1.063-1.632-1.18-2.283
							c-0.118-0.651-1.073-4.078-1.073-4.078S88.674,144.177,90.115,143.59z"/>
						<path fill="none" stroke="#000000" stroke-linecap="round" stroke-linejoin="round" stroke-miterlimit="10" d="M90.115,143.59
							c0,0,1.008,0.904,0.667,1.69c-0.341,0.786-1.149,1.656-0.666,1.991c0.483,0.335,0.64,1.876-0.242,3.001
							c-0.883,1.125-1.089,0.317-1.502-0.634c-0.317-0.731-0.327-1.811-0.019-2.109"/>
					</g>
					<g>
						<path fill="#DDE5E5" d="M128.141,145.881c0,0,0.343,5.364-0.164,6.603c-0.506,1.239-2.715,5.186-3.129,5.782
							c-0.414,0.596-1.58,0.494-1.58,0.494s1.527-1.945,1.969-2.964c0.442-1.019,1.719-1.458,0.115-3.985
							c-1.604-2.527-4.594-6.369-10.241-7.019c-5.647-0.649-12.167-0.932-15.097-0.403c-2.93,0.529-4.958-0.878-9.018-0.249
							c-4.06,0.629-5.101,3.53-5.101,3.53s-1.719,1.458-2.766,1.439c-1.047-0.02-0.953-1.81-0.953-1.81s-1.845-0.397-2.018-1.931
							c-0.173-1.534,0.627-2.304,1.766-2.927c1.14-0.623,1.681-0.512,1.681-0.512s-1.036-1.691-0.897-2.655
							c0,0-1.541-1.6,0.426-3.416c0,0-0.714-1.645,0.912-2.46c1.626-0.816,3.459-5.111,4.608-6.258s2.667-3.716,4.422-3.824
							c0,0,0.377-0.799,3.868-1.116c3.49-0.317,10.065,0.269,12.975,0.786c2.911,0.518,9.143,3.252,12.014,5.863
							c2.871,2.611,6.697,5.885,7.806,7.98c1.109,2.095-0.223,2.231,0.344,4.215C130.652,143.028,132.109,145.895,128.141,145.881z"
							/>
						<path fill="#C2D6D6" d="M92.745,133.546c1.092-0.268,5.666-2.164,6.413-2.37c0.747-0.206,12.482-0.331,15.461-0.014
							c2.979,0.317,7.586,3.333,8.156,3.729c0.57,0.396,4.383,0.99,4.917,0.395c0.124-0.139,0.028-0.612-0.189-1.253
							c1.003,1.034,1.817,2,2.238,2.795c1.109,2.095-0.223,2.231,0.344,4.215c0.567,1.984,2.024,4.851-1.943,4.837
							c0,0,0.343,5.363-0.164,6.603c-0.507,1.239-2.715,5.186-3.129,5.782c-0.414,0.597-1.58,0.494-1.58,0.494
							s1.527-1.945,1.969-2.964c0.442-1.019,1.719-1.458,0.115-3.985c-1.604-2.527-4.594-6.369-10.241-7.019
							c-5.647-0.649-12.167-0.932-15.097-0.403c-2.93,0.529-4.958-0.878-9.018-0.249c-4.06,0.629-5.101,3.53-5.101,3.53
							s-1.719,1.458-2.766,1.439c-1.047-0.02-0.953-1.81-0.953-1.81s-1.845-0.397-2.018-1.931c-0.03-0.267-0.021-0.504,0.004-0.728
							c1.863-2.055,3.74-1.657,3.74-1.657l-0.296-1.055c0,0-1.036-1.691-0.897-2.655c0,0-1.541-1.6,0.426-3.416
							c0,0-0.501,2.081,0.114,2.326c0.615,0.245,3.104,0.223,3.35-0.391c0.245-0.614-2.457-1.765-2.457-1.765l1.938,0.077
							c0,0,2.157,0.109,3.701-0.811c1.544-0.92,1.024-1.824,1.006-2.319c-0.015-0.413,1.002-7.129,1.343-9.371
							c0.307-0.163,0.622-0.268,0.945-0.288C93.078,123.315,91.654,133.815,92.745,133.546z"/>
						<g>
							<g id="XMLID_00000013178913738923196930000007753130265472906413_">
								<g>
									<path fill="#CCCCCC" d="M124.849,158.265c0.411-0.598,2.618-4.543,3.125-5.781c0.507-1.242,0.165-6.605,0.165-6.605
										s0.069-3.663-1.031-5.134c-1.101-1.471-8.293-6.638-13.099-7.232c-4.801-0.595-7.317,0.487-9.19,0.514
										c-1.878,0.023-2.618-0.051-4.531,0.922c-1.909,0.972-5.285,3.667-6.688,3.397c-0.576-0.108-1.311-0.258-1.982-0.397
										c0,0-1.923,1.314-3.604,1.826c-1.681,0.511-2.72,4.576-2.914,5.229c-0.198,0.654-1.527,0.79-2.925,2.293
										c0,0-0.096,1.791,0.955,1.813c1.046,0.019,2.764-1.438,2.764-1.438s1.041-2.905,5.103-3.53
										c4.056-0.629,6.084,0.778,9.016,0.249c2.928-0.529,9.45-0.25,15.095,0.4c5.65,0.649,8.636,4.492,10.239,7.018
										c1.608,2.53,0.329,2.969-0.114,3.988c-0.439,1.018-1.965,2.963-1.965,2.963S124.433,158.859,124.849,158.265z"/>
								</g>
							</g>
						</g>
						<path fill="#FFFFFF" d="M90.405,139.527c0.552-0.1,3.964-0.146,4.479-0.453c0.327-0.195,3.27-2.473,5.372-4.109
							c0.01-0.005,0.022-0.012,0.032-0.017c1.914-0.973,2.654-0.899,4.531-0.922c1.872-0.027,4.389-1.109,9.19-0.514
							c4.255,0.526,10.38,4.637,12.491,6.593c0.231,0.814,0.388,1.383,0.388,1.383s1.018,9.579,0.728,10.344
							c-0.113,0.299-0.854,0.678-1.713,1.029c-0.125-0.307-0.301-0.652-0.556-1.054c-1.603-2.526-4.589-6.369-10.239-7.018
							c-5.646-0.65-12.167-0.929-15.095-0.4c-2.933,0.53-4.96-0.878-9.016-0.249c-1.662,0.256-2.812,0.894-3.598,1.558
							c-0.644-0.635-1.149-1.163-1.17-1.283c-0.062-0.345,1.145-3.129,1.145-3.129S89.853,139.627,90.405,139.527z"/>
						<path fill="none" stroke="#000000" stroke-linecap="round" stroke-linejoin="round" stroke-miterlimit="10" d="
							M128.141,145.881c0,0,0.343,5.364-0.164,6.603c-0.506,1.239-2.715,5.186-3.129,5.782c-0.414,0.596-1.58,0.494-1.58,0.494
							s1.527-1.945,1.969-2.964c0.442-1.019,1.719-1.458,0.115-3.985c-1.604-2.527-4.594-6.369-10.241-7.019
							c-5.647-0.649-12.167-0.932-15.097-0.403c-2.93,0.529-4.958-0.878-9.018-0.249c-4.06,0.629-5.101,3.53-5.101,3.53
							s-1.719,1.458-2.766,1.439c-1.047-0.02-0.953-1.81-0.953-1.81s-1.845-0.397-2.018-1.931c-0.173-1.534,0.627-2.304,1.766-2.927
							c1.14-0.623,1.681-0.512,1.681-0.512s-1.036-1.691-0.897-2.655c0,0-1.541-1.6,0.426-3.416c0,0-0.714-1.645,0.912-2.46
							c1.626-0.816,3.459-5.111,4.608-6.258s2.667-3.716,4.422-3.824c0,0,0.377-0.799,3.868-1.116
							c3.49-0.317,10.065,0.269,12.975,0.786c2.911,0.518,9.143,3.252,12.014,5.863c2.871,2.611,6.697,5.885,7.806,7.98
							c1.109,2.095-0.223,2.231,0.344,4.215C130.652,143.028,132.109,145.895,128.141,145.881z"/>
						<path fill="none" stroke="#000000" stroke-linecap="round" stroke-linejoin="round" stroke-miterlimit="10" d="
							M89.811,137.573c0,0,2.387,0.508,3.792,0.776c1.405,0.268,4.778-2.428,6.689-3.399c1.911-0.971,2.655-0.897,4.528-0.922
							c1.874-0.025,4.391-1.106,9.193-0.513s11.996,5.762,13.096,7.233c1.1,1.471,1.032,5.135,1.032,5.135"/>
						<path fill="none" stroke="#000000" stroke-linecap="round" stroke-linejoin="round" stroke-miterlimit="10" d="
							M91.621,137.951c0,0-1.922,1.311-3.603,1.823c-1.681,0.512-2.721,4.576-2.916,5.229c-0.195,0.654-1.527,0.79-2.924,2.294"/>
					</g>
				</g>
				<g>
					<path fill="#FCD5CA" d="M87.451,162.652c0,0,4.944,3.963,5.579,4.94c0.635,0.978,3.175,4.888,3.703,7.075
						c0,0,2.464,1.9,2.77,2.854c0,0,7.169-2.675,7.744-2.946c0.575-0.271,6.031-6.169,9.525-7.308c0,0,4.729-5.505,5.294-5.884
						c0.565-0.379,2.8-1.566,4.034-1.788c1.234-0.222,2.767-0.745,3.062,0.101c0,0,1.573-0.09,1.54,1.331c0,0,1.082,0.5,1.043,1.267
						c-0.039,0.767-0.161,1.814-0.161,1.814s0.261,1.066,0.026,2.069c-0.235,1.003-0.205,1.927-0.795,2.036
						c-0.59,0.109-3.455,0.372-3.455,0.372s-4.125,4.359-4.788,4.856c-0.663,0.497-1.337,0.286-1.337,0.286
						s-5.087,6.355-5.686,7.555c-0.599,1.2-10.09,7.687-11.476,8.032c-1.386,0.345-7.665,3.811-10.738,2.403
						c-3.074-1.408-9.506-10.304-10.082-11.833c-0.576-1.528-4.142-8.889-4.142-8.889L87.451,162.652z"/>
					<path fill="#EFC2B4" d="M93.336,191.717c-3.073-1.408-9.506-10.305-10.082-11.833s-4.142-8.889-4.142-8.889l1.172-1.173
						c2.952,5.008,8.45,14.566,10.54,17.012c2.878,3.367,4.378,2.344,7.197,2.174c2.819-0.17,11.407-5.033,12.827-5.96
						c1.421-0.928,6.406-7.408,7.371-8.471c0.965-1.063,2.624-3.252,2.624-3.252s1.446,0.31,1.828-0.345
						c0.383-0.655,4.013-4.531,4.013-4.531s2.507-0.673,2.77-0.697c0.264-0.024,2.157,0.425,2.157,0.425
						c-0.235,1.003-0.205,1.927-0.794,2.036c-0.59,0.109-3.455,0.372-3.455,0.372s-4.125,4.359-4.788,4.856
						c-0.663,0.497-1.337,0.286-1.337,0.286s-5.087,6.355-5.686,7.555c-0.599,1.2-10.09,7.687-11.476,8.032
						C102.688,189.659,96.409,193.126,93.336,191.717z"/>
					<path fill="#EFC2B4" d="M90.552,168.437c-0.927-1.299-2.492-3.817-3.47-5.416l0.369-0.37c0,0,4.944,3.963,5.579,4.94
						c0.635,0.978,3.175,4.888,3.703,7.075c0,0,2.464,1.9,2.77,2.854l-1.731,1.06c0,0-0.753-2.411-1.696-3.033
						c-0.943-0.622-2.637-1.706-2.637-1.706S91.975,170.432,90.552,168.437z"/>
					<path fill="none" stroke="#000000" stroke-linecap="round" stroke-linejoin="round" stroke-miterlimit="10" d="M87.451,162.652
						c0,0,4.944,3.963,5.579,4.94c0.635,0.978,3.175,4.888,3.703,7.075c0,0,2.464,1.9,2.77,2.854c0,0,7.169-2.675,7.744-2.946
						c0.575-0.271,6.031-6.169,9.525-7.308c0,0,4.729-5.505,5.294-5.884c0.565-0.379,2.8-1.566,4.034-1.788
						c1.234-0.222,2.767-0.745,3.062,0.101c0,0,1.573-0.09,1.54,1.331c0,0,1.082,0.5,1.043,1.267
						c-0.039,0.767-0.161,1.814-0.161,1.814s0.261,1.066,0.026,2.069c-0.235,1.003-0.205,1.927-0.795,2.036
						c-0.59,0.109-3.455,0.372-3.455,0.372s-4.125,4.359-4.788,4.856c-0.663,0.497-1.337,0.286-1.337,0.286
						s-5.087,6.355-5.686,7.555c-0.599,1.2-10.09,7.687-11.476,8.032c-1.386,0.345-7.665,3.811-10.738,2.403
						c-3.074-1.408-9.506-10.304-10.082-11.833c-0.576-1.528-4.142-8.889-4.142-8.889L87.451,162.652z"/>
					<path fill="none" stroke="#000000" stroke-linecap="round" stroke-linejoin="round" stroke-miterlimit="10" d="
						M121.235,173.727c0,0,0.142-0.831-0.725-3.15"/>
					<path fill="none" stroke="#000000" stroke-linecap="round" stroke-linejoin="round" stroke-miterlimit="10" d="
						M127.361,168.585c0,0,1.321-1.048,1.67-1.407c0,0,0.364,0.403,1.332,0.259"/>
					<path fill="none" stroke="#000000" stroke-linecap="round" stroke-linejoin="round" stroke-miterlimit="10" d="
						M131.584,164.108c0,0-0.866-0.52-1.259-0.648c-0.393-0.128-2.9,0.484-3.45,0.426"/>
					<path fill="none" stroke="#000000" stroke-linecap="round" stroke-linejoin="round" stroke-miterlimit="10" d="
						M130.702,161.026c0,0-0.398-0.182-1.519,0.085c-1.12,0.266-3.774,1.055-4.108,0.977"/>
					<path fill="none" stroke="#000000" stroke-linecap="round" stroke-linejoin="round" stroke-miterlimit="10" d="
						M129.162,159.696c0,0-4.073,0.607-5.145,1.189"/>
				</g>
				<g>
					<path fill="#75B34B" stroke="#000000" stroke-linecap="round" stroke-linejoin="round" stroke-miterlimit="10" d="
						M5.479,247.014l17.488,9.147l13.689,15.26l89.894,27.097c0,0,17.449-0.512,30.427-1.093
						c12.978-0.581,34.288-16.859,37.659-19.771c3.37-2.912,26.037-31.553,28.321-34.847c2.285-3.294,10.719-17.463,11.53-21.604
						c0.811-4.141,0.023-36.547-1.666-40.263c-1.688-3.717-10.589-27.522-10.589-27.522s-62.264,10.171-65.19,11.394
						c-2.926,1.224-16.343,3.224-18.817,3.981c-2.475,0.757-25.902,11.986-32.04,17.837c-6.138,5.851-14.65,9.889-18.323,10.621
						c-0.967,0.193-23.706,3.666-23.706,3.666c-2.919-0.488-28.976-4.2-33.846-4.325c-4.87-0.125-40.196,14.231-40.196,14.231
						L5.479,247.014z"/>
					<path fill="#99C780" d="M164.595,185.179c0,0-7.604,12.811-7.991,15.392c-0.386,2.581-0.184,11.348-0.184,11.348l2.023-2.249
						c0,0,3.718-15.166,6.227-17.624S164.595,185.179,164.595,185.179z"/>
					<path fill="#99C780" d="M130.209,174.196c0,0-14.266,9.349-16.498,11.113s-16.781,20.089-16.781,20.089
						s13.215,8.811,14.63,8.893c1.415,0.082,22.347-1.782,23.54-1.95c1.193-0.168-0.944-16.383-2.291-17.644
						C131.461,193.436,130.209,174.196,130.209,174.196z"/>
				</g>
				<g>
					<path fill="#DDE5E5" d="M2.307,205.041c0,0,9.265-10.759,10.759-11.357c1.494-0.598,7.471-9.862,8.966-11.058
						c1.494-1.195,8.368-2.69,8.368-2.69s12.198-8.789,13.583-9.382c1.385-0.593,8.706-1.583,11.08-3.166
						c2.374-1.583,9.695-4.749,11.871-6.133s9.299-9.102,10.684-9.893s6.737-2.642,6.737-2.642s3.243,7.782,5.574,11.049
						c2.331,3.267,9.058,22.261,9.651,23.251c0.594,0.989,3.364,6.134,5.342,9.101c1.979,2.968,5.54,11.08,6.529,12.861
						c0.989,1.781,0.396,4.155-0.594,4.947c-0.989,0.791-16.818,16.422-17.807,17.214c-0.989,0.791-15.828,5.936-18.203,7.123
						c-2.374,1.187-19.984,11.08-21.171,12.267c-1.187,1.187-11.871,5.54-14.444,6.134c-2.572,0.594-26.117-19.192-27.106-20.379
						C11.138,231.099,2.307,205.041,2.307,205.041z"/>
					<path fill="#C2D6D6" d="M110.858,209.928c0.989-0.792,1.583-3.166,0.593-4.946c-0.989-1.781-4.551-9.893-6.529-12.861
						c-1.979-2.968-4.749-8.112-5.342-9.101c-0.593-0.989-7.321-19.984-9.651-23.251c-2.331-3.267-5.574-11.049-5.574-11.049
						s-5.352,1.851-6.737,2.642c-1.385,0.791-8.508,8.508-10.684,9.893c-2.177,1.385-9.497,4.551-11.871,6.134
						c-2.374,1.583-9.695,2.572-11.08,3.166c-0.729,0.312-4.453,2.895-7.817,5.271l10.46-0.707c0,0,15.364-3.841,16.593-4.302
						c1.229-0.461,5.377-2.919,5.377-2.919s5.685-0.154,7.067-0.154c1.383,0,3.841-3.227,3.841-3.227s6.607,1.844,7.682,1.844
						c1.076,0,3.702-1.659,3.702-1.659s4.287,19.481,5.363,22.093c1.076,2.612,8.45,15.21,7.989,15.825
						c-0.461,0.615-30.42-5.224-31.342-6.146c-0.922-0.922-2.612-25.658-2.612-25.658l-1.966,13.192l-11.247-6.893L56.15,187.41
						l-23.199,13.52l-3.841-8.757l0.615-10.294c0,0-3.687,13.213-4.917,14.135c-1.229,0.922-6.606-6.914-6.76-6.453
						c-0.154,0.461,3.38,17.054,3.687,17.976c0.307,0.922-1.844,4.609-2.765,6.453c-0.922,1.844-0.922,7.375-0.615,8.604
						c0.307,1.229,4.917-1.69,4.917-1.69l-0.307,11.215l4.609-8.911c0,0,8.142,3.38,9.833,3.38s5.377,0.614,7.682,2.305
						c2.304,1.69,12.598,11.83,12.598,11.83s-13.674,8.911-15.364,9.679c-1.07,0.486-5.955-0.505-9.397-1.298
						c3.134,2.241,5.575,3.731,6.308,3.562c2.572-0.594,13.256-4.947,14.444-6.134c1.187-1.187,18.796-11.08,21.17-12.267
						c2.178-1.089,14.831-5.503,17.678-6.838l0.532-0.291C94.097,226.294,109.871,210.719,110.858,209.928z"/>
					<path fill="#FFFFFF" stroke="#000000" stroke-linecap="round" stroke-linejoin="round" stroke-miterlimit="10" d="
						M110.858,209.928c0.989-0.792,1.583-3.166,0.593-4.946c-0.989-1.781-4.551-9.893-6.529-12.861
						c-1.979-2.968-4.749-8.112-5.342-9.101c-0.593-0.989-7.321-19.984-9.651-23.251c-0.996-1.396-2.158-3.617-3.163-5.703
						l-11.03,1.033c0,0,4.966,23.324,7.223,28.891c1.758,4.336,13.824,25.365,19.079,34.462
						C106.215,214.375,110.367,210.322,110.858,209.928z"/>
					<path fill="none" stroke="#000000" stroke-linecap="round" stroke-linejoin="round" stroke-miterlimit="10" d="M2.307,205.041
						c0,0,9.265-10.759,10.759-11.357c1.494-0.598,7.471-9.862,8.966-11.058c1.494-1.195,8.368-2.69,8.368-2.69
						s12.198-8.789,13.583-9.382c1.385-0.593,8.706-1.583,11.08-3.166c2.374-1.583,9.695-4.749,11.871-6.133
						s9.299-9.102,10.684-9.893s6.737-2.642,6.737-2.642s3.243,7.782,5.574,11.049c2.331,3.267,9.058,22.261,9.651,23.251
						c0.594,0.989,3.364,6.134,5.342,9.101c1.979,2.968,5.54,11.08,6.529,12.861c0.989,1.781,0.396,4.155-0.594,4.947
						c-0.989,0.791-16.818,16.422-17.807,17.214c-0.989,0.791-15.828,5.936-18.203,7.123c-2.374,1.187-19.984,11.08-21.171,12.267
						c-1.187,1.187-11.871,5.54-14.444,6.134c-2.572,0.594-26.117-19.192-27.106-20.379C11.138,231.099,2.307,205.041,2.307,205.041
						z"/>
					<path fill="none" stroke="#000000" stroke-linecap="round" stroke-linejoin="round" stroke-miterlimit="10" d="M71.089,163.234
						c0,0-2.572,17.807-2.77,20.775c-0.198,2.968,1.583,18.005,3.957,22.754c2.374,4.749,16.62,15.037,16.62,15.037"/>
					<path fill="none" stroke="#000000" stroke-linecap="round" stroke-linejoin="round" stroke-miterlimit="10" d="M30.4,179.937
						c0,0-2.246,10.601-2.642,12.778c-0.396,2.176,0.198,8.112,0.594,10.486c0.396,2.374-0.396,7.716-0.791,9.695
						c-0.396,1.979-3.759,14.048-3.759,14.048"/>
					<path fill="none" stroke="#000000" stroke-linecap="round" stroke-linejoin="round" stroke-miterlimit="10" d="M18.459,193.111
						c0,0,2.572,8.904,3.364,10.486c0.791,1.583,5.738,9.299,5.738,9.299"/>
				</g>
				<g>
					<path fill="#FCD5CA" d="M30.4,179.937c0,0,3.649-8.13,3.955-8.743c0.307-0.614,10.84-12.342,11.454-12.665
						c0.614-0.323,3.068-0.914,3.886-1.436c0.818-0.523,5.522-5.329,7.465-6.352c1.943-1.023,5.216-3.375,7.159-3.477
						c1.943-0.102,4.704,0,4.704,0s8.692-7.261,9.102-7.977c0.409-0.716,5.045-3.988,6.562-4.091c1.517-0.102,2.739,3.5,0.901,7.426
						c-1.838,3.926-3.819,4.621-3.819,4.621l-3.848,3.498l4.993,2.864c0,0,3.166,2.052,3.79,3.174
						c0.625,1.121-0.057,3.858-2.017,4.177c0,0,0.048,3.89-1.415,4.714c-1.463,0.823-8.419-2.486-8.419-2.486
						s-0.307,3.444-1.841,3.938c-1.534,0.494-10.942-1.296-10.942-1.296s-0.205,2.621-1.023,3.484
						c-0.818,0.863-8.386,1.579-9.408,1.682c-1.023,0.102-8.079,3.161-9.613,3.319C40.491,174.466,30.4,179.937,30.4,179.937z"/>
					<path fill="#EFC2B4" d="M82.914,153.604c0,0-4.993-2.864-4.993-2.864l3.848-3.498c0,0,1.98-0.695,3.818-4.621
						c1.686-3.6,0.797-6.92-0.532-7.368c0.278,4.619-2.339,7.258-2.74,7.793c-0.436,0.581-3.609,1.722-3.609,1.722l-6.115,3.648
						l3.483,1.597l-3.338,3.773l4.354,2.903c0,0-0.871,3.193-1.742,3.483c-0.871,0.29-18.868-3.338-18.142-3.048
						c0.726,0.29,15.965,3.483,15.965,3.483s-1.161,2.467-2.271,3.521c-1.109,1.054-6.654-1.213-7.598-1.054s-13.208,0-13.208,0
						l9.674,1.585c0,0-3.142,3.64-3.723,3.785c-0.58,0.145-11.175,1.306-12.481,1.597c-1.306,0.29-5.951,2.177-5.951,2.177
						l-6.592,6.336c-0.372,0.827-0.621,1.382-0.621,1.382s10.091-5.471,11.625-5.629c1.534-0.158,8.59-3.217,9.613-3.319
						c1.023-0.102,8.59-0.818,9.408-1.682c0.818-0.863,1.022-3.484,1.022-3.484s9.409,1.791,10.943,1.297
						c1.534-0.495,1.841-3.938,1.841-3.938s6.956,3.31,8.419,2.486c1.463-0.824,1.415-4.714,1.415-4.714
						c1.96-0.319,2.642-3.056,2.017-4.177C86.079,155.656,82.914,153.604,82.914,153.604z"/>
					<path fill="none" stroke="#000000" stroke-linecap="round" stroke-linejoin="round" stroke-miterlimit="10" d="M30.4,179.937
						c0,0,3.649-8.13,3.955-8.743c0.307-0.614,10.84-12.342,11.454-12.665c0.614-0.323,3.068-0.914,3.886-1.436
						c0.818-0.523,5.522-5.329,7.465-6.352c1.943-1.023,5.216-3.375,7.159-3.477c1.943-0.102,4.704,0,4.704,0
						s8.692-7.261,9.102-7.977c0.409-0.716,5.045-3.988,6.562-4.091c1.517-0.102,2.739,3.5,0.901,7.426
						c-1.838,3.926-3.819,4.621-3.819,4.621l-3.848,3.498l4.993,2.864c0,0,3.166,2.052,3.79,3.174
						c0.625,1.121-0.057,3.858-2.017,4.177c0,0,0.048,3.89-1.415,4.714c-1.463,0.823-8.419-2.486-8.419-2.486
						s-0.307,3.444-1.841,3.938c-1.534,0.494-10.942-1.296-10.942-1.296s-0.205,2.621-1.023,3.484
						c-0.818,0.863-8.386,1.579-9.408,1.682c-1.023,0.102-8.079,3.161-9.613,3.319C40.491,174.466,30.4,179.937,30.4,179.937z"/>
					<path fill="none" stroke="#000000" stroke-linecap="round" stroke-linejoin="round" stroke-miterlimit="10" d="M62.069,165.823
						c0,0-0.511-1.993-2.25-2.095c-1.738-0.102-6.545-0.581-8.079-0.546c-1.534,0.035-1.841-0.564-3.17-0.622"/>
					<path fill="none" stroke="#000000" stroke-linecap="round" stroke-linejoin="round" stroke-miterlimit="10" d="M74.852,163.182
						c0,0-0.409-2.4-2.557-2.665c-2.148-0.265-7.159-2.092-9.408-2.201c-2.25-0.109-7.392-1.69-8.094-2.127"/>
					<path fill="none" stroke="#000000" stroke-linecap="round" stroke-linejoin="round" stroke-miterlimit="10" d="M84.687,160.955
						c0,0-0.798-1.508-3.731-2.64c-2.933-1.132-7.433-4.302-9.376-4.711c-1.943-0.409-6.034-1.329-7.261-1.534
						c-1.227-0.204-1.739-1.84-1.739-1.84"/>
					<path fill="none" stroke="#000000" stroke-linecap="round" stroke-linejoin="round" stroke-miterlimit="10" d="M77.92,150.74
						c0,0-6.647-2.863-8.897-3.477"/>
					<path fill="none" stroke="#000000" stroke-linecap="round" stroke-linejoin="round" stroke-miterlimit="10" d="M78.211,145.878
						c0,0,2.471,1.932,3.558,1.364"/>
					<path fill="#FDEAE2" stroke="#000000" stroke-linecap="round" stroke-linejoin="round" stroke-miterlimit="10" d="
						M83.889,160.031c0,0,2.012-1.725,2.112-2.465c0.1-0.74-1.729-1.98-2.323-1.974c-0.594,0.006-1.743,0.745-1.91,1.5
						C81.602,157.848,83.415,159.548,83.889,160.031z"/>
					<path fill="#FDEAE2" stroke="#000000" stroke-linecap="round" stroke-linejoin="round" stroke-miterlimit="10" d="
						M83.085,161.548c0,0-1.701,1.88-2.129,2.644c-0.428,0.764-2.608-1.478-2.745-2.172c-0.137-0.694,1.243-2.669,2.215-2.499
						C81.397,159.689,83.085,161.548,83.085,161.548z"/>
					<path fill="#FDEAE2" stroke="#000000" stroke-linecap="round" stroke-linejoin="round" stroke-miterlimit="10" d="
						M72.807,161.929c0,0-1.346,0.932-1.907,2.201c-0.561,1.269-1.963-0.061-2.131-0.639c-0.168-0.578,0.617-1.757,1.065-1.919
						C70.284,161.409,71.293,160.831,72.807,161.929z"/>
					<path fill="#FDEAE2" stroke="#000000" stroke-linecap="round" stroke-linejoin="round" stroke-miterlimit="10" d="
						M59.768,164.661c0,0-1.288,1.976-1.104,2.593c0.184,0.617-1.752,0.421-1.964,0c-0.212-0.421-0.153-1.855,0.256-2.076
						C57.365,164.955,58.936,164.492,59.768,164.661z"/>
					<path fill="none" stroke="#000000" stroke-linecap="round" stroke-linejoin="round" stroke-miterlimit="10" d="M42.025,174.308
						c0,0-1.616,0.254-2.463-0.809"/>
				</g>
				<g>
					<path fill="#FCD5CA" d="M141.256,228.201c0,0-33.14-10.607-37.79-12.242c-4.65-1.635-35.332-17.186-35.332-17.186
						s-2.2-12.426-4.017-15.333c-1.817-2.907-8.023-12.361-9.371-12.902c-1.348-0.541-0.542-2.918-3.403-1.959
						c-2.861,0.959-3.395,3.598-2.486,7.413c0.908,3.815,2.543,7.267,2.543,7.267s-6.54,0.363-7.812,0.182
						c-1.272-0.182-8.284-3.115-10.547-3.312c-2.263-0.197-3.205,0.197-4.603,1.574c-1.398,1.377-0.274,4.033,0,4.722
						c0.274,0.689,2.242,1.771,2.242,1.771s0,0.984-0.885,0.885c-0.885-0.098-5.029-0.59-5.81-0.492
						c-0.781,0.098-2.257,1.917-2.748,3.32c-0.492,1.402,0.295,3.272,0.984,3.96s3.345,1.771,3.345,1.771s-0.576,0.787-2.059,0.885
						c-1.483,0.098-4.508,1.369-5.516,1.967c-1.008,0.598-2.164,3.148-1.869,4.427c0.295,1.279,2.263,2.18,3.13,2.361
						c0.867,0.181,4.255,0.59,4.255,0.59s-2.036,1.18-3.432,1.771c-1.396,0.59-1.691,1.869-2.675,3.443
						c-0.984,1.574-0.962,2.948,0,3.443c0.962,0.495,2.853,0.885,3.64,0.689c0.787-0.197,5.206-0.197,5.899-0.197
						s9.608,5.269,12.184,5.832c2.576,0.563,7.298-0.224,9.364,0.661c2.066,0.885,8.067,6.591,14.068,12.1
						c6.001,5.509,44.76,29.512,46.334,31.48c1.574,1.967,25.653,15.285,31.184,15.445c5.532,0.16,15.445-12.297,15.248-12.592
						C155.123,269.648,141.256,228.201,141.256,228.201z"/>
					<path fill="#EFC2B4" d="M63.295,185.714l1.878,13.461l2.959-0.402c0,0-2.2-12.426-4.017-15.333
						c-0.513-0.821-1.375-2.163-2.38-3.68L63.295,185.714z"/>
					<g>
						<path fill="#EFC2B4" d="M21.974,193.54c-0.24-0.096-0.552-0.471-0.871-0.945c-0.106,1.272,0.536,2.691,1.117,3.272
							c0.51,0.51,2.098,1.235,2.888,1.577l2.031-0.462C27.139,196.984,22.757,193.853,21.974,193.54z"/>
						<path fill="#EFC2B4" d="M19.251,207.279c0.757,0.158,3.429,0.489,4.1,0.571l3.788-1.789c0,0-7.155-0.985-8.139-1.565
							c-0.571-0.337-1.216-2.02-1.658-3.375c-0.786,1.01-1.454,2.79-1.222,3.797C16.416,206.197,18.384,207.098,19.251,207.279z"/>
						<path fill="#EFC2B4" d="M141.848,282.225c-0.107-8.782-0.623-50.264-0.763-50.964l-17.374-6.261c0,0-3.6,17.53-3.6,21.6
							c0,4.07,0.313,13.617-1.252,14.087c-1.565,0.47-58.226-33.965-59.478-35.06c-1.252-1.096-7.043-5.791-8.139-7.044
							c-1.096-1.252-1.409-1.878-3.287-1.409c-1.878,0.469-10.956,2.661-12.678,2.191c-1.722-0.47-7.983-5.009-9.392-5.009
							c-1.408,0-5.392,1.522-8.487-1.274c-0.984,1.574-0.962,2.948,0,3.443c0.962,0.495,2.853,0.885,3.64,0.689
							c0.787-0.197,5.206-0.197,5.899-0.197c0.692,0,9.608,5.269,12.184,5.832c2.576,0.563,7.298-0.224,9.364,0.661
							c2.066,0.885,8.066,6.591,14.067,12.1c6.001,5.509,44.76,29.512,46.334,31.48c1.574,1.968,25.652,15.285,31.184,15.445
							C140.625,282.551,141.223,282.437,141.848,282.225z"/>
					</g>
					<path fill="none" stroke="#000000" stroke-linecap="round" stroke-linejoin="round" stroke-miterlimit="10" d="
						M141.256,228.201c0,0-33.14-10.607-37.79-12.242c-4.65-1.635-35.332-17.186-35.332-17.186s-2.2-12.426-4.017-15.333
						c-1.817-2.907-8.023-12.361-9.371-12.902c-1.348-0.541-0.542-2.918-3.403-1.959c-2.861,0.959-3.395,3.598-2.486,7.413
						c0.908,3.815,2.543,7.267,2.543,7.267s-6.54,0.363-7.812,0.182c-1.272-0.182-8.284-3.115-10.547-3.312
						c-2.263-0.197-3.205,0.197-4.603,1.574c-1.398,1.377-0.274,4.033,0,4.722c0.274,0.689,2.242,1.771,2.242,1.771
						s0,0.984-0.885,0.885c-0.885-0.098-5.029-0.59-5.81-0.492c-0.781,0.098-2.257,1.917-2.748,3.32
						c-0.492,1.402,0.295,3.272,0.984,3.96s3.345,1.771,3.345,1.771s-0.576,0.787-2.059,0.885c-1.483,0.098-4.508,1.369-5.516,1.967
						c-1.008,0.598-2.164,3.148-1.869,4.427c0.295,1.279,2.263,2.18,3.13,2.361c0.867,0.181,4.255,0.59,4.255,0.59
						s-2.036,1.18-3.432,1.771c-1.396,0.59-1.691,1.869-2.675,3.443c-0.984,1.574-0.962,2.948,0,3.443
						c0.962,0.495,2.853,0.885,3.64,0.689c0.787-0.197,5.206-0.197,5.899-0.197s9.608,5.269,12.184,5.832
						c2.576,0.563,7.298-0.224,9.364,0.661c2.066,0.885,8.067,6.591,14.068,12.1c6.001,5.509,44.76,29.512,46.334,31.48
						c1.574,1.967,25.653,15.285,31.184,15.445c5.532,0.16,15.445-12.297,15.248-12.592
						C155.123,269.648,141.256,228.201,141.256,228.201z"/>
					<path fill="#FDEAE2" stroke="#000000" stroke-linecap="round" stroke-linejoin="round" stroke-miterlimit="10" d="
						M54.345,170.482c0,0-1.72-0.124-2.869,0.201c-1.149,0.325-1.775,0.319-2.163,0c-0.388-0.319-0.473-1.26,0.879-1.628
						c1.352-0.368,3.047-0.335,3.315-0.026C53.774,169.337,54.345,170.482,54.345,170.482z"/>
					<path fill="none" stroke="#000000" stroke-linecap="round" stroke-linejoin="round" stroke-miterlimit="10" d="M51.4,183.258
						c0,0,2.1,0.055,3.346,0c1.246-0.055,2.383-0.411,2.383-0.411"/>
					<path fill="none" stroke="#000000" stroke-linecap="round" stroke-linejoin="round" stroke-miterlimit="10" d="M29.795,189.08
						c0,0,1.481,0.16,2.049-0.409"/>
					
						<line fill="none" stroke="#000000" stroke-linecap="round" stroke-linejoin="round" stroke-miterlimit="10" x1="25.565" y1="197.639" x2="26.517" y2="198.26"/>
					
						<line fill="none" stroke="#000000" stroke-linecap="round" stroke-linejoin="round" stroke-miterlimit="10" x1="23.506" y1="207.87" x2="24.838" y2="207.215"/>
				</g>
				<g>
					<path fill="#99C780" d="M123.045,219.538c0,0-2.701,8.243-1.614,16.14c1.087,7.897,10.924,55.98,10.924,55.98
						s22.127-0.224,27.191,0c5.064,0.224,44.398-28.253,48.258-33.518c3.861-5.264,19.479-28.955,21.585-33.693
						c2.106-4.738,6.493-21.491,5.791-26.188c-0.702-4.697-4.212-9.611-8.248-11.717c-4.036-2.106-20.243-5.275-31.092-5.796
						c-10.849-0.521-22.607,6.876-25.239,8.354c-2.632,1.478-7.019,6.823-7.019,8.538s0.527,5.66,0.527,5.66
						s-5.967,13.252-7.37,14.831c-1.404,1.579-3.322,2.42-4.732,4.72c-1.41,2.299-5.271,2.124-7.728,1.422
						c-2.457-0.702-5.616-0.351-5.616-0.351L123.045,219.538z"/>
					<path fill="#75B34B" d="M139.738,253.329c-0.882,0.147-9.624-2.997-16.108-5.394c1.489,7.777,3.459,17.674,5.151,26.088
						l39.167,13.673c13.258-7.968,36.906-25.531,39.856-29.554c3.861-5.264,19.479-28.955,21.585-33.693
						c2.106-4.738,6.493-21.491,5.791-26.188c-0.702-4.697-4.212-9.611-8.248-11.717c-4.036-2.106-20.243-5.275-31.092-5.796
						c-0.678-0.033-1.359-0.034-2.041-0.008c-6.731,2.568-14.209,5.771-15.081,6.207c-1.418,0.709-8.032,9.686-8.032,9.686
						s10.444-5.876,13.702-6.379c3.258-0.502,31.656,3.544,30.239,5.434c-1.417,1.89-9.686,8.505-10.867,10.867
						c-1.181,2.362,3.071,7.56,2.363,10.867c-0.709,3.307,0,18.191-2.363,18.191c-2.362,0-7.323,3.071-9.449,2.126
						c-2.126-0.945-13.702-11.812-17.482-12.285c-3.78-0.473-7.323,1.654-4.252,2.126c3.071,0.473,11.576,10.395,13.938,13.702
						c2.363,3.307,11.812,8.505,11.812,8.505s-4.016,4.252-9.214,3.071c-5.197-1.181-20.316-13.938-21.025-15.592
						c-0.708-1.654-10.999-11.819-10.999-11.819s3.675,12.528,4.384,15.835c0.709,3.307,16.301,16.537,16.301,16.537
						s-26.223-2.126-28.821-3.307c-2.599-1.181-9.686-26.459-9.686-26.459S141.156,253.093,139.738,253.329z"/>
					<path fill="none" stroke="#000000" stroke-linecap="round" stroke-linejoin="round" stroke-miterlimit="10" d="
						M123.045,219.538c0,0-2.701,8.243-1.614,16.14c1.087,7.897,10.924,55.98,10.924,55.98s22.127-0.224,27.191,0
						c5.064,0.224,44.398-28.253,48.258-33.518c3.861-5.264,19.479-28.955,21.585-33.693c2.106-4.738,6.493-21.491,5.791-26.188
						c-0.702-4.697-4.212-9.611-8.248-11.717c-4.036-2.106-20.243-5.275-31.092-5.796c-10.849-0.521-22.607,6.876-25.239,8.354
						c-2.632,1.478-7.019,6.823-7.019,8.538s0.527,5.66,0.527,5.66s-5.967,13.252-7.37,14.831c-1.404,1.579-3.322,2.42-4.732,4.72
						c-1.41,2.299-5.271,2.124-7.728,1.422c-2.457-0.702-5.616-0.351-5.616-0.351L123.045,219.538z"/>
					<path fill="none" stroke="#000000" stroke-linecap="round" stroke-linejoin="round" stroke-miterlimit="10" d="
						M138.663,223.921c0,0,5.089,30.534,5.967,34.044c0.878,3.51,10.003,24.572,10.003,24.572"/>
					<path fill="none" stroke="#000000" stroke-linecap="round" stroke-linejoin="round" stroke-miterlimit="10" d="M152.006,222.85
						c0,0,3.854,0.258,5.083,2.595c1.228,2.337,7.546,18.13,7.897,20.587c0.351,2.457,15.267,15.969,19.479,18.075"/>
					<path fill="none" stroke="#000000" stroke-linecap="round" stroke-linejoin="round" stroke-miterlimit="10" d="
						M164.459,226.378c0,0,9.161,1.61,13.004,5.016c3.842,3.407,11.526,11.479,15.23,15.164c3.704,3.685,9.671,4.738,10.548,2.808"
						/>
					<path fill="none" stroke="#000000" stroke-linecap="round" stroke-linejoin="round" stroke-miterlimit="10" d="
						M164.108,203.299c0,0,11.055-11.316,17.022-12.544c5.966-1.228,30.71,0,30.71,0"/>
					<path fill="none" stroke="#000000" stroke-linecap="round" stroke-linejoin="round" stroke-miterlimit="10" d="
						M159.611,212.898c0,0-2.171-13.304-2.171-16.144c0-2.84,5.317-13.906,5.317-13.906"/>
				</g>
				<g>
					<path fill="#FCD5CA" d="M201.399,154.974c0,0-2.295-27.148,9.97-44.678c12.263-17.529,21.358-43.911-11.781-66.635
						c-33.137-22.725-56.245,12.179-58.935,21.764c-2.689,9.586,0.41,16.535-1.007,19.791c-1.418,3.256-11.058,16.409-11.257,18.34
						c-0.2,1.93,2.505,5.147,7.609,5.372c0.57,1.165-0.075,2.121-0.656,4.298c-0.579,2.177,1.376,4.792,3.566,4.554
						c-1.828,1.359-3.285,3.016,0.07,6.262c1.993,2.953,0.832,3.251,0.654,5.351c-0.181,2.098,1.421,11.159,17.76,6.581
						c3.525,2.954,3.36,9.256-1.197,12.688C163.866,157.748,188.416,165.766,201.399,154.974z"/>
					<path fill="#EFC2B4" d="M189.695,110.455c0,0-5.805,7.444-9.63,5.382c2.124,5.638,2.669,19.019,11.716,27.243
						c7.041-7.178,4.45-13.004,4.45-13.004l-1.636-8.484"/>
					<path fill="#EFC2B4" d="M167.622,129.533c-11.28,6.83-18.858,7.703-20.085,0.103c-0.578-3.578,6.072-4.077-1.182-9.151
						c-7.253-5.074-9.193-13.033-6.207-18.797c5.225-10.085,14.285-4.546,6.487-14.343c-11.819-14.85-1.201-29.615-1.201-29.615
						l-1.069-0.002c-1.934,3.105-3.199,5.865-3.713,7.697c-2.689,9.586,0.41,16.535-1.007,19.791
						c-1.418,3.256,1.708,13.271-10.659,18.898c-1.767,0.805,1.907,4.589,7.011,4.814c0.57,1.165-0.075,2.121-0.656,4.298
						c-0.579,2.177,1.376,4.792,3.566,4.554c-1.828,1.359-3.285,3.016,0.07,6.262c1.993,2.953,0.832,3.251,0.654,5.351
						c-0.181,2.098,1.421,11.159,17.76,6.581c3.525,2.954,3.36,9.256-1.197,12.688c1.913,2.267,4.878,4.467,8.451,6.326
						c5.47-0.255-4.932,1.336-3.016-1.654C165.166,147.816,172.109,138.314,167.622,129.533z"/>
					<path fill="none" stroke="#000000" stroke-linecap="round" stroke-linejoin="round" stroke-miterlimit="10" d="
						M201.399,154.974c0,0-2.295-27.148,9.97-44.678c12.263-17.529,21.358-43.911-11.781-66.635
						c-33.137-22.725-56.245,12.179-58.935,21.764c-2.689,9.586,0.41,16.535-1.007,19.791c-1.418,3.256-11.058,16.409-11.257,18.34
						c-0.2,1.93,2.505,5.147,7.609,5.372c0.57,1.165-0.075,2.121-0.656,4.298c-0.579,2.177,1.376,4.792,3.566,4.554
						c-1.828,1.359-3.285,3.016,0.07,6.262c1.993,2.953,0.832,3.251,0.654,5.351c-0.181,2.098,1.421,11.159,17.76,6.581
						c2.203,1.846,2.965,5,2.114,7.944"/>
					<path fill="none" stroke="#000000" stroke-linecap="round" stroke-linejoin="round" stroke-miterlimit="10" d="M135.322,107.6
						c0,0-0.361-1.163-3.773-1.759"/>
					<path fill="#FFFFFF" d="M142.45,93.227c-1.15,0.28-1.57,0.119-1.57,0.119s-0.105,0.426-0.023,1.082
						c0.074,0.593,0.598,0.863,0.598,0.863c2.595-0.225,5.125-1.775,5.125-1.775S144.343,92.767,142.45,93.227z"/>
					<path fill="#222222" stroke="#000000" stroke-linecap="round" stroke-linejoin="round" stroke-miterlimit="10" d="
						M142.52,93.213c-0.023,0.005-0.048,0.008-0.07,0.014c-1.15,0.28-1.57,0.119-1.57,0.119s-0.105,0.426-0.023,1.082
						c0.074,0.593,0.598,0.863,0.598,0.863c0.528-0.046,1.052-0.148,1.554-0.279C142.996,94.56,142.894,93.919,142.52,93.213z"/>
					<path fill="none" stroke="#000000" stroke-linecap="round" stroke-linejoin="round" stroke-miterlimit="10" d="M146.58,93.517
						c0,0-2.132-0.803-4.13-0.289c-1.998,0.512-3.575-0.075-3.575-0.075"/>
					<path fill="none" stroke="#000000" stroke-linecap="round" stroke-linejoin="round" stroke-miterlimit="10" d="M145.496,93.19
						c0,0-2.107-3.98-5.091-4.076"/>
					<path fill="none" stroke="#000000" stroke-linecap="round" stroke-linejoin="round" stroke-miterlimit="10" d="M140.88,93.346
						c-0.855-2.233,0.123-4.153,0.123-4.153"/>
					<path fill="#592612" stroke="#000000" stroke-linecap="round" stroke-linejoin="round" stroke-miterlimit="10" d="
						M148.531,87.097c0,0-2.755-6.007-9.143-5.653c0.029,1.267-0.074,1.703,0.059,2.546
						C139.446,83.99,143.421,82.954,148.531,87.097z"/>
					<path fill="#592612" d="M143.926,58.445c0,0,1.958-3.598,7.998,5.286c6.043,8.887,8.334,12.933,8.334,12.933
						s-0.783,5.395,4.42,11.509c5.202,6.115,10.344,8.952,15.69,8.19c8.697,3.703,10.324,12.594,10.324,12.594
						s-5.823,7.432-4.939,18.378c0.884,10.948,5.399,14.768,5.399,14.768s-6.486,7.268-10.717,7.312
						c-12.399-6.999-24.045-3.103-32.764,1.727c-7.976,4.26-19.189,18.21-11.4,33.725c0.395-5.753,4.091-6.873,4.091-6.873
						s-1.137,2.152,1.337,6.237c0.857-3.077,12.384-11.135,26.126-8.788c0,0,12.609,1.813,16.076,10.622
						c-3.554,1.343-4.746,2.429-4.746,2.429s10.399,7.812,18.078,6.019c7.681-1.792,11.529-8.061,11.529-8.061
						s19.902-2.413,19.027-24.093c-0.876-21.681-11.605-17.766-3.663-41.185c7.943-23.418,16.48-35.389,8.028-54.872
						c-8.452-19.481-27.613-31.586-49.494-32.001C160.777,33.887,142.181,45.972,143.926,58.445z"/>
					<path fill="none" stroke="#000000" stroke-linecap="round" stroke-linejoin="round" stroke-miterlimit="10" d="M143.926,58.445
						c0,0,1.958-3.598,7.998,5.286c6.043,8.887,8.334,12.933,8.334,12.933s-0.783,5.395,4.42,11.509
						c5.202,6.115,10.344,8.952,15.69,8.19c8.697,3.703,10.324,12.594,10.324,12.594s-5.823,7.432-4.939,18.378
						c0.884,10.948,5.399,14.768,5.399,14.768s-6.486,7.268-10.717,7.312c-12.399-6.999-24.045-3.103-32.764,1.727
						c-7.976,4.26-19.189,18.21-11.4,33.725c0.395-5.753,4.091-6.873,4.091-6.873s-1.137,2.152,1.337,6.237
						c0.857-3.077,12.384-11.135,26.126-8.788c0,0,12.609,1.813,16.076,10.622c-3.554,1.343-4.746,2.429-4.746,2.429
						s10.399,7.812,18.078,6.019c7.681-1.792,11.529-8.061,11.529-8.061s19.902-2.413,19.027-24.093
						c-0.876-21.681-11.605-17.766-3.663-41.185c7.943-23.418,16.48-35.389,8.028-54.872c-8.452-19.481-27.613-31.586-49.494-32.001
						C160.777,33.887,142.181,45.972,143.926,58.445z"/>
					<path fill="#FCD5CA" d="M180.439,97.751c0,0,5.141-6.404,8.25-4.546c3.11,1.859,5.477,5.189,4.454,10.335
						c-1.023,5.147-7.345,12.458-11.121,12.535c-3.774,0.08-4.779-2.507-4.779-2.507"/>
					<path fill="#EFC2B4" d="M189.412,97.912c0,0,2.303,3.34,1.148,4.667c-1.154,1.327-4.181-1.728-5.283,0.701
						c-1.101,2.427,0.859,4.049,0.859,4.049s-0.723-0.544-3.339,0.04c-2.617,0.584-3.246,0.045-3.055-0.757
						c0.191-0.802,1.631-1.436,2.092-2.34c0.462-0.904,0.642-1.344,0.11-2.352c-0.53-1.009-0.301-2.808,0.72-3.773
						C183.687,97.184,187.289,95.701,189.412,97.912z"/>
					<path fill="none" stroke="#000000" stroke-linecap="round" stroke-linejoin="round" stroke-miterlimit="10" d="M180.439,97.751
						c0,0,5.141-6.404,8.25-4.546c3.11,1.859,5.477,5.189,4.454,10.335c-1.023,5.147-7.345,12.458-11.121,12.535
						c-3.774,0.08-4.779-2.507-4.779-2.507"/>
					<path fill="none" stroke="#000000" stroke-linecap="round" stroke-linejoin="round" stroke-miterlimit="10" d="M189.873,98.807
						c0,0-0.714-2.703-4.154-2.107c-2.754,0.482-5.044,3.104-3.654,5.447c1.39,2.34-3.137,3.647-2.236,5.045
						c0.87,1.35,3.05-0.247,5.364-0.192c2.314,0.053,1.087,2.212,1.087,2.212"/>
					<path fill="none" stroke="#000000" stroke-linecap="round" stroke-linejoin="round" stroke-miterlimit="10" d="
						M181.688,101.117c0,0,2.896-4.644,6.204-0.431"/>
					<path fill="none" stroke="#000000" stroke-linecap="round" stroke-linejoin="round" stroke-miterlimit="10" d="
						M157.391,135.973c0,0,9.684-2.811,15.056-12.937"/>
					<path fill="none" stroke="#000000" stroke-linecap="round" stroke-linejoin="round" stroke-miterlimit="10" d="M138.765,117.79
						c0,0,0.511,0.252,2.951-0.292c0,0,1.148,0.184,1.258,0.898"/>
					<path fill="none" stroke="#000000" stroke-linecap="round" stroke-linejoin="round" stroke-miterlimit="10" d="
						M142.667,116.577c0,0,1.222,1.594-0.264,2.552"/>
					<path fill="none" stroke="#000000" stroke-linecap="round" stroke-linejoin="round" stroke-miterlimit="10" d="
						M191.151,142.102c0,0,8.634,14.938,2.204,21.572"/>
					<path fill="none" stroke="#000000" stroke-linecap="round" stroke-linejoin="round" stroke-miterlimit="10" d="
						M208.761,186.452c0,0,16.664-14.816,9.414-38.772c-7.25-23.956-4.527-39.431,3.718-54.063"/>
					<path fill="none" stroke="#000000" stroke-linecap="round" stroke-linejoin="round" stroke-miterlimit="10" d="M190.674,94.722
						c0,0,10.366,10.293,5.455,28.114"/>
					<path fill="none" stroke="#000000" stroke-linecap="round" stroke-linejoin="round" stroke-miterlimit="10" d="
						M180.434,149.414c0,0,11.309,5.547,14.855,3.533"/>
					<path fill="none" stroke="#000000" stroke-linecap="round" stroke-linejoin="round" stroke-miterlimit="10" d="M183.9,186.064
						c0,0,25.245-0.206,23.003-38.838"/>
					<path fill="none" stroke="#000000" stroke-linecap="round" stroke-linejoin="round" stroke-miterlimit="10" d="M141.698,184.23
						c0,0,0.504-15.337,17.276-20.988c16.773-5.648,31.976,17.181,44.807,7.535"/>
					<path fill="none" stroke="#000000" stroke-linecap="round" stroke-linejoin="round" stroke-miterlimit="10" d="M140.36,177.993
						c0,0,1.555-25.179,23.32-32.261"/>
					<path fill="none" stroke="#000000" stroke-linecap="round" stroke-linejoin="round" stroke-miterlimit="10" d="M143.818,57.128
						c0,0,10.7-19.779,29.406-9.679c18.706,10.1,32.48,36.108,33.856,36.7"/>
					<path fill="none" stroke="#000000" stroke-linecap="round" stroke-linejoin="round" stroke-miterlimit="10" d="M148.309,59.326
						c0,0,5.667-3.117,12.842,11.88c7.174,14.997,24.745,21.857,24.745,21.857"/>
					<path fill="none" stroke="#000000" stroke-linecap="round" stroke-linejoin="round" stroke-miterlimit="10" d="M153.495,42.159
						c0,0,26.635-14.513,51.005,10.943"/>
				</g>
			</g>
			<g>
				<g>
					<path fill="#AFBAC6" d="M203.676,252.14c0,0,10.688-15.568,12.179-23.98c1.491-8.411,16.052-94.588,17.538-114.202
						c1.486-19.614,6.241-42.199,16.047-48.439c9.806-6.24,18.424-10.069,27.637-4.589c9.212,5.48,54.679,34.008,58.245,35.791
						c3.566,1.783,5.349,3.793,3.269,6.057c0,0-11.887,46.631-14.561,52.827c-2.674,6.196-49.033,162.505-50.518,163.991
						c-1.486,1.486-65.971-1.486-65.971-1.486L203.676,252.14z"/>
					<path fill="#CED4D8" d="M249.439,65.519c-9.806,6.241-14.561,28.825-16.047,48.439c-0.497,6.561-2.458,20.572-4.902,36.626
						c4.92-18.297,11.708-44.175,13.009-52.396c2.085-13.174,13.898-29.564,17.72-32.092c2.273-1.503,7.494-4.993,11.354-7.576
						C263.693,57.424,256.911,60.764,249.439,65.519z"/>
					<path fill="#94A2AF" d="M274.402,67.82c-5.349,3.047-16.641,16.366-18.424,20.553c-1.783,4.188-8.62,25.974-10.253,39.3
						c-1.633,13.326-9.36,97.721-11.44,113.174c-2.08,15.453-13.369,47.844-13.369,47.844l-13.638,24.956l0.261,4.463
						c0,0,64.485,2.972,65.971,1.486c1.486-1.486,47.844-157.796,50.518-163.991c2.674-6.196,14.561-52.827,14.561-52.827
						S288.368,69.23,284.208,67.82C280.048,66.41,279.751,64.773,274.402,67.82z"/>
					<path fill="none" stroke="#000000" stroke-linecap="round" stroke-linejoin="round" stroke-miterlimit="10" d="M203.676,252.14
						c0,0,10.688-15.568,12.179-23.98c1.491-8.411,16.052-94.588,17.538-114.202c1.486-19.614,6.241-42.199,16.047-48.439
						c9.806-6.24,18.424-10.069,27.637-4.589c9.212,5.48,54.679,34.008,58.245,35.791c3.566,1.783,5.349,3.793,3.269,6.057
						c0,0-11.887,46.631-14.561,52.827c-2.674,6.196-49.033,162.505-50.518,163.991c-1.486,1.486-65.971-1.486-65.971-1.486
						L203.676,252.14z"/>
					<path fill="none" stroke="#000000" stroke-linecap="round" stroke-linejoin="round" stroke-miterlimit="10" d="
						M207.539,318.111c0,0,15.453-37.597,18.722-50.892c3.269-13.296,13.967-107.8,14.561-125.776
						c0.594-17.976,6.658-50.543,14.027-59.221c7.369-8.679,19.795-22.82,25.733-19.169"/>
					<path fill="none" stroke="#000000" stroke-linecap="round" stroke-linejoin="round" stroke-miterlimit="10" d="M338.59,102.778
						c0,0-50.221-33.548-54.382-34.958c-4.16-1.41-4.457-3.047-9.806,0c-5.349,3.047-16.641,16.366-18.424,20.553
						c-1.783,4.188-8.62,25.974-10.253,39.3c-1.633,13.326-9.36,97.721-11.44,113.174c-2.08,15.453-13.369,47.844-13.369,47.844"/>
				</g>
				<g>
					<path fill="#AFBAC6" d="M22.701,315.733c0,0,10.698-64.188,11.292-68.051c0.594-3.863,8.024-16.344,15.75-15.453
						c7.726,0.891,62.405,7.132,73.4,8.321c10.995,1.189,74.886,10.401,80.532,11.59c5.646,1.189,8.321,2.08,13.372,13.075
						c5.052,10.995,7.429,16.641,2.675,27.934c-4.755,11.292-10.104,24.665-12.184,24.962s-138.48-6.835-144.423-6.835
						c-5.943,0-8.023-1.486-9.509,0c-1.486,1.486-5.646,15.453-5.646,15.453l-27.042-5.052L22.701,315.733z"/>
					<path fill="#94A2AF" d="M209.391,254.105c-1.456,6.223-5.653,19.852-14.675,20.908c-11.72,1.372-134.605-12.322-134.605-12.322
						l-9.774,56.542c1.199-3.577,2.55-7.237,3.271-7.958c1.486-1.486,3.566,0,9.51,0c5.943,0,142.343,7.132,144.423,6.835
						c2.08-0.297,7.429-13.67,12.184-24.962c4.755-11.292,2.377-16.938-2.675-27.934
						C214.027,258.639,211.856,255.678,209.391,254.105z"/>
					<path fill="#CED4D8" d="M48.852,310.979c1.486-3.269,12.778-13.67,16.344-19.613c3.566-5.943,9.212-23.476,6.24-34.768
						c-2.972-11.292-12.778-22.288-20.802-22.288c-8.023,0-13.372,9.509-14.561,13.075c-1.188,3.565-6.812,28.938-6.816,28.955
						c-3.095,18.622-6.557,39.393-6.557,39.393l-1.783,5.943l27.042,5.052C47.96,326.728,47.366,314.247,48.852,310.979z"/>
					<path fill="none" stroke="#000000" stroke-linecap="round" stroke-linejoin="round" stroke-miterlimit="10" d="M22.701,315.733
						c0,0,10.698-64.188,11.292-68.051c0.594-3.863,8.024-16.344,15.75-15.453c7.726,0.891,62.405,7.132,73.4,8.321
						c10.995,1.189,74.886,10.401,80.532,11.59c5.646,1.189,8.321,2.08,13.372,13.075c5.052,10.995,7.429,16.641,2.675,27.934
						c-4.755,11.292-10.104,24.665-12.184,24.962s-138.48-6.835-144.423-6.835c-5.943,0-8.023-1.486-9.509,0
						c-1.486,1.486-5.646,15.453-5.646,15.453l-27.042-5.052L22.701,315.733z"/>
					<path fill="none" stroke="#000000" stroke-linecap="round" stroke-linejoin="round" stroke-miterlimit="10" d="M47.961,326.728
						c0,0-0.594-12.481,0.891-15.75c1.486-3.269,12.778-13.67,16.344-19.613c3.566-5.943,9.212-23.476,6.241-34.768
						c-2.972-11.292-12.778-22.288-20.802-22.288s-13.373,9.509-14.561,13.075c-1.189,3.566-6.816,28.956-6.816,28.956"/>
					<path fill="none" stroke="#000000" stroke-linecap="round" stroke-linejoin="round" stroke-miterlimit="10" d="M49.744,232.229
						c0,0,6.019,0.691,7.9,0.906c1.881,0.215,10.411,2.958,14.628,13.061c4.217,10.104,5.524,18.686,2.791,30.145
						c-2.734,11.459-5.948,19.185-10.73,22.454c-4.782,3.269-8.588,7.777-10.725,12.481"/>
				</g>
			</g>
		</g>
	</g>
	<circle fill="none" stroke="#000000" stroke-miterlimit="10" cx="150.5" cy="150.5" r="150"/>
</g>
</svg>
